<?xml version="1.0" encoding="UTF-8" standalone="no"?>
<!-- Uploaded to: SVG Repo, www.svgrepo.com, Generator: SVG Repo Mixer Tools -->

<svg
   fill="#000000"
   height="800px"
   width="800px"
   version="1.1"
   id="Capa_1"
   viewBox="0 0 511 511"
   xml:space="preserve"
   sodipodi:docname="fav-icon.svg"
   inkscape:version="1.2.2 (732a01da63, 2022-12-09)"
   xmlns:inkscape="http://www.inkscape.org/namespaces/inkscape"
   xmlns:sodipodi="http://sodipodi.sourceforge.net/DTD/sodipodi-0.dtd"
   xmlns="http://www.w3.org/2000/svg"
   xmlns:svg="http://www.w3.org/2000/svg"><defs
   id="defs49"><rect
     x="43.781095"
     y="33.830846"
     width="1535.3"
     height="648.41064"
     id="rect3851" /><rect
     x="19.700487"
     y="509.39832"
     width="761.28312"
     height="275.80682"
     id="rect1015" /><rect
     x="63.322995"
     y="523.47009"
     width="683.88835"
     height="237.81303"
     id="rect455" /></defs><sodipodi:namedview
   id="namedview47"
   pagecolor="#ffffff"
   bordercolor="#000000"
   borderopacity="0.25"
   inkscape:showpageshadow="2"
   inkscape:pageopacity="0.0"
   inkscape:pagecheckerboard="0"
   inkscape:deskcolor="#d1d1d1"
   showgrid="false"
   inkscape:zoom="1.4212846"
   inkscape:cx="462.60966"
   inkscape:cy="475.27426"
   inkscape:window-width="1920"
   inkscape:window-height="991"
   inkscape:window-x="-9"
   inkscape:window-y="-9"
   inkscape:window-maximized="1"
   inkscape:current-layer="Capa_1" />

<path
   id="text3849"
   style="font-style:normal;font-variant:normal;font-weight:normal;font-stretch:normal;font-size:500px;line-height:0;font-family:'Gill Sans MT';-inkscape-font-specification:'Gill Sans MT';text-align:start;letter-spacing:60px;word-spacing:20px;writing-mode:lr-tb;white-space:pre;shape-inside:url(#rect3851);shape-padding:2.81433;fill:none;fill-opacity:1;stroke:#000000;stroke-width:3.69782;stroke-dasharray:none;stroke-opacity:1"
   d="m 2.5143808,117.7717 v 78.53834 H 53.119604 V 391.25341 H 119.18301 V 196.31004 h 50.44251 V 117.7717 Z m 226.9522092,0 v 175.50914 c 0,30.72073 6.7257,54.76317 20.17701,72.12705 13.4513,17.23031 32.21816,25.84552 56.30034,25.84552 97.93661,-69.05627 -10.1216,-88.1375 -10.41393,-110.99551 V 117.7717 Z m 221.58253,0 c -22.12957,0 -39.32348,7.21274 -51.58153,21.63811 -12.14956,14.42539 -18.22438,34.7279 -18.22438,60.90728 V 307.5059 c 0,27.11437 6.45448,47.88438 19.36341,62.30975 12.90892,14.29182 31.56729,21.43776 55.97491,21.43776 h 51.90696 V 332.7135 l -44.42195,-1.22455 c -7.70002,-0.21231 -12.8343,-11.87159 -15.32931,-13.60797 -2.49501,-1.86997 -1.59854,-18.24282 -1.59854,-23.98626 0,-5.07559 1.42743,-13.58989 4.04842,-18.03656 2.495,-2.1371 4.258,-4.26191 10.11583,-4.26191 h 43.12021 v -32.73926 h -45.89812 c 0.17078,0.0765 -3.3143,-0.59322 -7.68418,-6.47541 -2.21458,-10.30272 -1.4163,-18.73809 -1.4163,-24.08082 0,-9.08264 4.43881,-32.00949 15.42825,-28.32189 l 43.80101,0.40872 -0.16532,-62.61589 z"
   sodipodi:nodetypes="ccccccccccscccccscsscsccccscsccccscccs" /><path
   style="fill:#ffffff;stroke:#000000;stroke-width:5.20348;stroke-opacity:1"
   d="m 55.019476,291.28311 v -97.5801 H 29.696917 4.3743584 V 156.74961 119.7962 H 85.96927 167.56418 v 36.95341 36.9534 h -25.32256 -25.32256 v 97.5801 97.58009 H 85.96927 55.019476 Z"
   id="path3314" /><path
   style="fill:#ffffff;stroke:#000000;stroke-width:5.20348;stroke-opacity:1"
   d="m 292.35804,387.60801 c -16.22875,-2.58592 -29.19959,-10.24034 -40.071,-23.64691 -6.3083,-7.77936 -8.40541,-11.35175 -11.90173,-20.27435 -8.78086,-22.40876 -9.02873,-26.10244 -9.0381,-134.68271 l -0.008,-89.20784 h 30.94979 30.9498 v 83.33927 c 0,55.58893 0.76438,80.36227 4.18105,83.91699 10.00691,10.41124 20.64521,14.05381 29.79973,13.89327 l 30.55821,-0.51226 0.44941,43.99016 -0.44941,44.43957 -47.89175,-0.14642 c -6.3194,-0.0193 -14.20665,-0.57949 -17.5283,-1.10877 z"
   id="path3316"
   sodipodi:nodetypes="cssccccssscccscc" /><path
   style="fill:#ffffff;stroke:#000000;stroke-width:5.20348;stroke-opacity:1"
   d="m 442.36084,387.66475 c -30.71762,-4.50936 -49.90936,-23.20534 -56.8731,-55.40397 -1.41981,-6.56488 -1.66286,-15.46582 -1.97028,-72.15711 -0.23449,-43.24285 -0.006,-67.86903 0.69056,-74.32866 2.7544,-25.55443 13.38114,-45.25335 29.96796,-55.55196 13.67398,-8.49006 25.60515,-10.35882 66.40317,-10.40065 l 25.55702,-0.0262 v 28.86985 28.86986 H 482.12664 458.1171 l -3.0389,3.75307 c -6.01725,7.4314 -9.14475,25.18241 -7.58878,43.07232 0.62169,7.14802 1.05391,8.40533 4.23664,12.32419 l 3.54432,4.36409 h 23.55715 23.55715 v 13.78546 13.78546 l -23.75658,0.36077 -23.75659,0.36076 -3.36557,3.16293 c -4.94707,4.64923 -5.86255,9.15848 -5.86255,28.87632 v 17.02694 l 5.79854,6.8593 c 3.65487,4.32345 7.12212,7.31182 9.37873,8.08338 1.9691,0.67326 12.02104,1.2341 22.33763,1.24632 10.3166,0.0122 19.70705,0.33555 20.86767,0.71853 l 2.11021,0.6963 v 26.42558 26.42558 l -28.83958,-0.15177 c -15.86177,-0.0835 -31.58285,-0.55448 -34.93575,-1.04669 z"
   id="path3318" /></svg>
